# xmcd
#
# Track frame offsets:
# 150
# 22523
# 40935
# 55001
# 70124
# 87058
# 102998
# 120168
# 139731
# 157411
# 174978
# 187370
# 207498
# 221212
# 240410
# 255148
#
# Disc length: 3609 seconds
#
#
# Revision: 0
# Processed by: cddbd v1.5.2PL0 Copyright (c) Steve Scherf et al.
# Submitted via: FreeRIP 2.945 
#
DISCID=d50e1710
DTITLE=Gary Fletcher - The Official Grary Fletcher Bootleg Album
DYEAR=2004
DGENRE=Blues
TTITLE0=World Gone Crazy
TTITLE1=It Takes The Blues To See
TTITLE2=A Lie Is A Lie
TTITLE3=The Other Side Of The Street
TTITLE4=Brand New Start
TTITLE5=Greenstuff
TTITLE6=So Lonely
TTITLE7=Help Me
TTITLE8=Watch My Lips
TTITLE9=You've Got To Choose
TTITLE10=Stop Messing With My Life
TTITLE11=Commuter Blues
TTITLE12=Steppping Out On Main Street
TTITLE13=Told No Lies
TTITLE14=You Are True
TTITLE15=Take Me To The Redline
EXTD=
EXTT0=
EXTT1=
EXTT2=
EXTT3=
EXTT4=
EXTT5=
EXTT6=
EXTT7=
EXTT8=
EXTT9=
EXTT10=
EXTT11=
EXTT12=
EXTT13=
EXTT14=
EXTT15=
PLAYORDER=
